<?xml version="1.0" encoding="UTF-8" standalone="no"?>
<!-- Created with Inkscape (http://www.inkscape.org/) -->

<svg
   width="500"
   height="489.789"
   viewBox="0 0 132.29165 129.59"
   version="1.1"
   id="svg5"
   xml:space="preserve"
   xmlns="http://www.w3.org/2000/svg"
   xmlns:svg="http://www.w3.org/2000/svg"><defs
     id="defs2" /><g
     id="layer1"><path
       style="fill:none;stroke:#0068e8;stroke-width:2.95014;stroke-linecap:butt;stroke-linejoin:miter;stroke-miterlimit:22;stroke-dasharray:none;stroke-opacity:1;paint-order:normal"
       d="m 0.00498033,60.821615 6.56913527,0.0095 1.6171734,10.980865 3.239705,-17.661435 1.671664,24.764423 3.209453,-32.841292 3.863612,55.910664 2.705659,-71.141075 4.370193,57.990103 3.109256,-41.743017"
       id="path19119" /><path
       style="fill:none;stroke:#1c95ff;stroke-width:2.95014;stroke-linecap:butt;stroke-linejoin:miter;stroke-miterlimit:22;stroke-dasharray:none;stroke-opacity:1;paint-order:normal"
       d="m 0.00258912,58.322205 5.41231318,0.0095 1.6171733,10.980869 3.2397054,-17.661437 1.671663,24.764423 3.209456,-32.841291 3.863612,55.910677 2.705657,-71.141074 4.370195,57.990082 3.228421,-40.79195"
       id="path19115" /><path
       style="fill:none;stroke:#61b5ff;stroke-width:2.95014;stroke-linecap:butt;stroke-linejoin:miter;stroke-miterlimit:22;stroke-dasharray:none;stroke-opacity:1;paint-order:normal"
       d="m 0.0162134,56.041499 4.5253311,0.0095 1.6171735,10.980865 3.2397052,-17.661433 1.6716628,24.764422 3.209454,-32.841282 3.863615,55.910655 2.705657,-71.141062 4.370194,57.990084 3.663401,-42.849959"
       id="path9930" /><path
       style="fill:none;stroke:#0068e8;stroke-width:3;stroke-linecap:butt;stroke-linejoin:miter;stroke-dasharray:none;stroke-opacity:1"
       d="M 34.53242,53.597584 C 23.934828,30.911374 30.081226,33.490129 46.874313,36.646149 73.034514,9.9136433 109.63034,13.936437 124.90383,31.582228 c -10.09044,0.798355 -18.2422,4.834173 -23.15785,12.036205 12.6975,0.829624 23.4837,7.208457 28.4422,21.189081 -7.84026,0.168928 -15.2425,-0.944551 -25.14153,6.700935 9.72528,3.052288 18.75675,9.457832 19.72307,24.869905 C 81.570779,76.820393 71.93114,114.79152 43.324081,87.103619 32.847142,86.887987 31.723365,81.850629 38.595205,79.927348 34.169569,73.701138 30.462909,64.777711 34.53242,53.597584 Z"
       id="path19117" /><path
       style="fill:none;stroke:#1c95ff;stroke-width:3;stroke-linecap:butt;stroke-linejoin:miter;stroke-dasharray:none;stroke-opacity:1"
       d="M 33.769859,51.995258 C 23.172269,29.30906 29.318667,31.887817 46.111752,35.043838 72.271948,8.311329 108.86776,12.334123 124.14127,29.979915 c -10.09046,0.798356 -18.24221,4.834172 -23.15786,12.036203 12.69749,0.829625 23.48371,7.20846 28.44221,21.189073 -7.84026,0.168928 -15.2425,-0.94455 -25.14155,6.700933 9.72529,3.052289 18.75677,9.457833 19.72308,24.869907 C 80.808215,75.218069 71.168575,113.1892 42.561518,85.501296 32.084579,85.285666 30.960803,80.248305 37.832645,78.325027 33.40701,72.098815 29.700349,63.175391 33.769859,51.995258 Z"
       id="path19113" /><path
       style="fill:none;stroke:#61b5ff;stroke-width:3;stroke-linecap:butt;stroke-linejoin:miter;stroke-dasharray:none;stroke-opacity:1"
       d="M 32.879748,50.409412 C 22.282159,27.72321 28.428556,30.301966 45.221641,33.457986 71.381826,6.7254787 107.97764,10.748272 123.25114,28.394064 c -10.09046,0.798353 -18.2422,4.834174 -23.15785,12.036204 12.69749,0.829626 23.48371,7.208461 28.44219,21.189071 -7.84024,0.16893 -15.2425,-0.94455 -25.14152,6.700935 9.72528,3.052289 18.75674,9.457832 19.72306,24.869906 C 79.918091,73.632217 70.27845,111.60335 41.671408,83.915446 31.19447,83.699814 30.070692,78.662456 36.942535,76.739175 32.516898,70.512963 28.810237,61.589539 32.879748,50.409412 Z"
       id="path7672" /></g></svg>
